<?xml version="1.0" ?><!DOCTYPE svg  PUBLIC '-//W3C//DTD SVG 1.1//EN'  'http://www.w3.org/Graphics/SVG/1.1/DTD/svg11.dtd'><svg enable-background="new 0 0 800 800" height="800px" id="Layer_1" version="1.1" viewBox="0 0 800 800" width="800px" xml:space="preserve" xmlns="http://www.w3.org/2000/svg" xmlns:xlink="http://www.w3.org/1999/xlink"><g><path d="M365.012,153.216V73.089c0-8.688-7.052-15.736-15.736-15.736H216.612c-8.684,0-15.735,7.047-15.735,15.736   v80.126c0,8.689,7.051,15.736,15.735,15.736h132.664C357.96,168.952,365.012,161.905,365.012,153.216z M333.541,137.481H232.348   V88.825h101.192V137.481z" fill="#4D4D4D"/><path d="M599.122,153.216V73.089c0-8.688-7.052-15.736-15.735-15.736H450.74c-8.685,0-15.735,7.047-15.735,15.736   v80.126c0,8.689,7.051,15.736,15.735,15.736h132.646C592.07,168.952,599.122,161.905,599.122,153.216z M567.65,137.481H466.476   V88.825H567.65V137.481z" fill="#4D4D4D"/><path d="M399.996,279.747c-26.888,0-48.762,23.247-48.762,51.826v95.884c0,28.582,21.874,51.834,48.762,51.834   c26.906,0,48.778-23.252,48.778-51.834v-95.884C448.773,302.994,426.901,279.747,399.996,279.747z M417.303,427.456   c0,11.227-7.763,20.363-17.307,20.363c-9.536,0-17.29-9.137-17.29-20.363v-95.884c0-11.223,7.754-20.355,17.29-20.355   c9.544,0,17.307,9.133,17.307,20.355V427.456z" fill="#4D4D4D"/><path d="M279.037,207.58h-57.331c-13.813,0-26.009,9-30.084,22.198L85.819,572.962   c-2.002,2.639-3.24,5.893-3.24,9.461c0,0.269,0.071,0.519,0.088,0.782L46.068,701.902c-2.942,9.549-1.177,19.924,4.759,27.963   c5.926,8.035,15.331,12.781,25.315,12.781h202.894c17.378,0,31.472-14.089,31.472-31.472V239.05   C310.508,221.669,296.415,207.58,279.037,207.58z M221.706,239.05h57.331v327.637H120.689L221.706,239.05z M76.143,711.175   l34.843-113.016h168.051v113.016H76.143z" fill="#4D4D4D"/><path d="M753.932,701.902L608.369,229.778c-4.066-13.198-16.264-22.198-30.066-22.198h-57.332   c-17.377,0-31.471,14.089-31.471,31.47v472.125c0,17.383,14.094,31.472,31.471,31.472h202.886c9.992,0,19.389-4.746,25.325-12.781   C755.107,721.826,756.873,711.451,753.932,701.902z M578.303,239.05l101.008,327.637h-158.34V239.05H578.303z M520.971,711.175   V598.159h168.044l34.842,113.016H520.971z" fill="#4D4D4D"/></g></svg>