<?xml version="1.0" ?><!DOCTYPE svg  PUBLIC '-//W3C//DTD SVG 1.1//EN'  'http://www.w3.org/Graphics/SVG/1.1/DTD/svg11.dtd'><svg height="128px" id="Layer_1" style="enable-background:new 0 0 127.999 128;" version="1.1" viewBox="0 0 127.999 128" width="127.999px" xml:space="preserve" xmlns="http://www.w3.org/2000/svg" xmlns:xlink="http://www.w3.org/1999/xlink"><style type="text/css">
<![CDATA[
	.st0{fill:#FFFFFF;}
]]>
</style><g><path class="st0" d="M64,7.989c-30.885,0-56.01,25.126-56.01,56.01c0,30.885,25.125,56.012,56.01,56.012   c30.883,0,56.01-25.127,56.01-56.012C120.01,33.115,94.883,7.989,64,7.989z M79.83,43.347c0,0.552-0.447,0.999-1,1l-6.367,0.004   c-4.201,0-4.969,1.636-4.969,4.858v6.684h10.92c0.287,0,0.561,0.124,0.75,0.34s0.277,0.503,0.242,0.788l-1.555,12.033   c-0.064,0.499-0.49,0.872-0.992,0.872h-9.365v29.879c0,0.553-0.447,1-1,1H54.07c-0.553,0-1-0.447-1-1V69.926h-9.395   c-0.553,0-1-0.447-1-1V56.893c0-0.553,0.447-1,1-1h9.395v-7.875c0-10.43,6.312-16.908,16.475-16.908   c4.369,0,8.23,0.325,9.416,0.482c0.498,0.066,0.869,0.49,0.869,0.991V43.347z"/></g></svg>