<?xml version="1.0" ?><!DOCTYPE svg  PUBLIC '-//W3C//DTD SVG 1.1//EN'  'http://www.w3.org/Graphics/SVG/1.1/DTD/svg11.dtd'><svg height="128px" id="Layer_1" style="enable-background:new 0 0 128 128;" version="1.1" viewBox="0 0 128 128" width="128px" xml:space="preserve" xmlns="http://www.w3.org/2000/svg" xmlns:xlink="http://www.w3.org/1999/xlink"><style type="text/css">
<![CDATA[
	.st0{fill:#FFFFFF;}
]]>
</style><g><path class="st0" d="M63.997,7.989c-30.883,0-56.009,25.126-56.009,56.01c0,30.885,25.126,56.012,56.009,56.012   c30.885,0,56.011-25.127,56.011-56.012C120.007,33.115,94.881,7.989,63.997,7.989z M93.807,49.391   c-1.503,2.243-3.339,4.191-5.464,5.798c0.009,0.325,0.015,0.65,0.015,0.975c0,16.334-12.429,33.229-33.229,33.229   c-6.357,0-12.549-1.813-17.905-5.244c-0.392-0.251-0.559-0.738-0.402-1.177c0.155-0.438,0.591-0.717,1.056-0.658   c0.877,0.101,1.746,0.151,2.584,0.151c4.08,0,7.968-1.097,11.381-3.193c-4.12-0.995-7.514-4.067-8.842-8.221   c-0.107-0.337-0.03-0.704,0.204-0.969c0.235-0.264,0.593-0.388,0.938-0.317c0.188,0.036,0.377,0.067,0.565,0.093   c-3.473-2.213-5.726-6.104-5.726-10.412v-0.143c0-0.354,0.188-0.682,0.493-0.861c0.305-0.181,0.683-0.185,0.992-0.013   c0.435,0.241,0.886,0.45,1.349,0.626c-1.754-2.166-2.742-4.893-2.742-7.762c0-2.178,0.577-4.322,1.668-6.199   c0.165-0.284,0.458-0.469,0.786-0.495c0.334-0.025,0.646,0.11,0.854,0.365c5.319,6.522,13.051,10.625,21.368,11.381   c-0.059-0.493-0.088-0.992-0.088-1.493c0-6.797,5.531-12.327,12.329-12.327c3.207,0,6.31,1.265,8.599,3.487   c2.239-0.499,4.373-1.345,6.351-2.519c0.356-0.215,0.808-0.183,1.133,0.077c0.325,0.258,0.457,0.69,0.331,1.086   c-0.493,1.546-1.285,2.966-2.32,4.188c0.847-0.256,1.677-0.564,2.487-0.924c0.408-0.178,0.885-0.07,1.171,0.271   S94.055,49.021,93.807,49.391z"/></g></svg>