<?xml version="1.0" ?><!DOCTYPE svg  PUBLIC '-//W3C//DTD SVG 1.1//EN'  'http://www.w3.org/Graphics/SVG/1.1/DTD/svg11.dtd'><svg height="128px" id="Layer_1" style="enable-background:new 0 0 128 128;" version="1.1" viewBox="0 0 128 128" width="128px" xml:space="preserve" xmlns="http://www.w3.org/2000/svg" xmlns:xlink="http://www.w3.org/1999/xlink"><style type="text/css">
<![CDATA[
	.st0{fill:#FFFFFF;}
]]>
</style><g><path class="st0" d="M63.109,50.721c1.099,0,1.625-0.87,1.625-2.608v-7.909c0-1.74-0.526-2.605-1.625-2.605   c-1.1,0-1.627,0.865-1.627,2.605v7.909C61.482,49.851,62.009,50.721,63.109,50.721z"/><path class="st0" d="M64,7.989c-30.884,0-56.01,25.126-56.01,56.01c0,30.885,25.126,56.012,56.01,56.012   c30.885,0,56.011-25.127,56.011-56.012C120.01,33.115,94.884,7.989,64,7.989z M93.771,77.483c0,4.301,0,9.176-1.028,13.632   c-0.866,3.775-3.982,6.596-7.755,7.02c-6.493,0.725-13.073,0.784-19.806,0.784h-1.3h-1.302c-6.733,0-13.313-0.06-19.807-0.784   c-3.773-0.424-6.89-3.245-7.753-7.019c-1.022-4.444-1.022-9.115-1.022-13.633c0-4.287,0-9.146,1.032-13.634   c0.868-3.776,3.985-6.597,7.755-7.018c6.5-0.728,12.972-0.786,20.153-0.786h0.952h0.957l0.001,1l0,0v-1   c7.179,0,13.65,0.059,20.149,0.786c3.773,0.421,6.89,3.241,7.756,7.019c1.017,4.428,1.017,9.074,1.017,13.567V77.483z    M63.109,34.531c1.707,0,3.03,0.644,3.975,1.928c0.714,0.951,1.059,2.419,1.059,4.427v6.585c0,1.999-0.345,3.479-1.059,4.423   c-0.944,1.28-2.268,1.924-3.975,1.924c-1.695,0-3.024-0.644-3.965-1.924c-0.727-0.944-1.067-2.424-1.067-4.423v-6.585   c0-2.008,0.341-3.476,1.067-4.427C60.084,35.174,61.414,34.531,63.109,34.531z M47.415,35.36c-0.795-2.339-1.626-4.691-2.421-7.027   h3.976l2.681,9.905l2.576-9.905h3.819h0.005h-0.005L53.501,43.34v10.216h-3.778V43.34C49.382,41.529,48.625,38.877,47.415,35.36z    M74.381,49.923c0.073,0.528,0.339,0.798,0.798,0.798c0.68,0,1.396-0.528,2.152-1.595V34.76h3.406v18.796h-3.406v-2.052   c-1.357,1.557-2.65,2.312-3.892,2.312c-1.098,0-1.854-0.446-2.192-1.399c-0.189-0.567-0.304-1.469-0.304-2.794V34.76h3.396v13.837   C74.339,49.397,74.339,49.812,74.381,49.923z"/><polygon class="st0" points="47.868,89.549 47.868,68.1 51.907,68.1 51.907,64.583 40.154,64.583 40.154,68.1 44.119,68.1    44.119,89.549  "/><path class="st0" d="M82.595,70.721c-1.719,0-3.064,0.631-4.035,1.907c-0.719,0.939-1.041,2.394-1.041,4.384v6.516   c0,1.973,0.365,3.443,1.082,4.371c0.973,1.271,2.314,1.908,4.082,1.908c1.758,0,3.141-0.668,4.074-2.018   c0.408-0.596,0.672-1.274,0.785-2.02c0.032-0.34,0.074-1.088,0.074-2.172v-0.491h-3.441c0,1.353-0.04,2.097-0.072,2.28   c-0.193,0.902-0.678,1.354-1.508,1.354c-1.154,0-1.719-0.857-1.719-2.582v-3.295h6.74v-3.852c0-1.99-0.339-3.444-1.045-4.384   C85.628,71.352,84.287,70.721,82.595,70.721z M84.246,78.056h-3.369v-1.72c0-1.72,0.564-2.582,1.691-2.582   c1.113,0,1.678,0.862,1.678,2.582V78.056z"/><path class="st0" d="M62.091,89.549V70.947h-3.375v14.218c-0.744,1.053-1.455,1.576-2.131,1.576c-0.451,0-0.707-0.266-0.789-0.787   c-0.03-0.109-0.03-0.523-0.03-1.311V70.947h-3.369v14.71c0,1.314,0.112,2.199,0.298,2.766c0.335,0.943,1.084,1.385,2.172,1.385   c1.238,0,2.512-0.75,3.85-2.286v2.028H62.091z"/><path class="st0" d="M65.009,64.583v24.966h3.369v-1.803c1.126,1.393,2.282,2.061,3.481,2.061c1.344,0,2.245-0.707,2.694-2.092   c0.225-0.787,0.34-2.026,0.34-3.746v-7.41c0-1.759-0.115-2.991-0.34-3.74c-0.449-1.393-1.351-2.098-2.694-2.098   c-1.237,0-2.392,0.68-3.481,2.016v-8.153H65.009z M70.058,73.754c0.973,0,1.467,0.862,1.467,2.539v7.941   c0,1.68-0.494,2.506-1.467,2.506c-0.554,0-1.117-0.266-1.68-0.826v-11.34C68.941,74.02,69.504,73.754,70.058,73.754z"/></g></svg>